<svg xmlns="http://www.w3.org/2000/svg" version="1.1" xmlns:xlink="http://www.w3.org/1999/xlink" width="1000" height="1000"><metadata><rdf:RDF xmlns:rdf="http://www.w3.org/1999/02/22-rdf-syntax-ns#" xmlns:dc="http://purl.org/dc/elements/1.1/"><rdf:Description><dc:creator>RealFaviconGenerator</dc:creator><dc:source>https://realfavicongenerator.net</dc:source></rdf:Description></rdf:RDF></metadata><style>
    #light-icon {
      display: inline;
    }
    #dark-icon {
      display: none;
    }

    @media (prefers-color-scheme: dark) {
      #light-icon {
        display: none;
      }
      #dark-icon {
        display: inline;
      }
    }
  </style><g id="light-icon"><svg xmlns="http://www.w3.org/2000/svg" version="1.1" xmlns:xlink="http://www.w3.org/1999/xlink" width="1000" height="1000"><g><g transform="matrix(22.727272727272727,0,0,22.727272727272727,34.09090909090912,0)"><svg xmlns="http://www.w3.org/2000/svg" width="41" height="44" viewBox="0 0 41 44" fill="none"><path d="M34.6901 1.58417C38.192 3.42201 40.2197 6.2995 40.7844 10.2144C40.97 11.5008 41.1805 12.7996 40.7347 14.0905C40.2207 15.5792 39.4191 16.8961 38.426 18.0932C38.1348 18.4442 38.1024 18.6632 38.3656 19.0728C39.6749 21.1105 40.6291 23.3041 40.676 25.7781C40.7306 28.6619 39.7331 31.1957 37.9735 33.4401C36.1258 35.7968 33.775 37.5235 31.2025 38.9569C26.9349 41.3347 22.4009 42.9495 17.5736 43.6534C14.5542 44.0937 11.5206 44.181 8.51976 43.521C4.32625 42.5988 1.8193 39.88 0.747074 35.7441C0.351241 34.2173 0.357448 32.6658 0.502821 31.0793C0.70748 28.8457 1.55493 26.9299 2.83561 25.1676C3.08687 24.8219 3.08833 24.6101 2.80705 24.2652C1.0744 22.1403 0.0192805 19.7304 0.000269352 16.9318C-0.0188724 14.1138 0.982424 11.7082 2.94378 9.7151C5.55068 7.06599 8.60064 5.07711 11.9499 3.54224C15.2169 2.04504 18.6309 1.02807 22.1651 0.444155C25.4356 -0.0961867 28.7099 -0.245445 31.9664 0.580826C32.8976 0.817073 33.788 1.1659 34.6901 1.58417ZM18.3563 16.6612C14.798 17.5968 11.3807 18.8893 8.21936 20.8164C6.68987 21.7487 5.28629 22.8436 4.10305 24.2131C3.79965 24.5643 3.83219 24.8404 4.14566 25.1673C5.27071 26.3407 6.63024 27.1257 8.12292 27.7017C11.2879 28.9232 14.5361 28.8946 17.8137 28.3508C20.9439 27.8314 23.9503 26.8772 26.8686 25.6307C29.9892 24.2978 32.9595 22.7011 35.5557 20.4628C36.2459 19.8678 36.9245 19.2569 37.5068 18.5179C36.8416 17.839 36.0756 17.3726 35.26 16.9963C31.7647 15.3837 28.0818 15.1872 24.3326 15.5605C22.3373 15.7592 20.3755 16.1624 18.3563 16.6612ZM29.4238 15.0922C29.8894 15.1532 30.357 15.2021 30.8204 15.2771C33.2597 15.6714 35.5891 16.3534 37.5462 17.9788C37.7413 18.1408 37.8655 18.1465 38.0318 17.9439C39.1301 16.6065 40.0207 15.1546 40.5104 13.4698C40.6385 13.0289 40.5919 12.6595 40.3327 12.261C39.2902 10.6579 37.928 9.41415 36.2852 8.48425C32.9991 6.62422 29.4643 6.32995 25.8232 6.87451C22.9975 7.29711 20.2366 8.00889 17.5535 9.01156C13.6965 10.453 10.0976 12.3309 6.97873 15.115C4.85349 17.0122 3.7143 19.3479 3.44037 22.1573C3.3831 22.7446 3.48778 23.3332 3.66732 23.8782C3.84497 23.8864 3.89827 23.8032 3.95921 23.7379C6.19374 21.3435 8.9398 19.7371 11.893 18.4534C15.0007 17.1024 18.2285 16.1575 21.5555 15.5591C24.1319 15.0958 26.7214 14.8304 29.4238 15.0922ZM5.61089 36.0127C7.04558 36.6673 8.57314 36.8888 10.123 36.9802C12.8362 37.1402 15.5127 36.8403 18.1648 36.2719C21.6711 35.5205 25.0212 34.3117 28.2382 32.7187C30.4218 31.6374 32.4398 30.3177 34.1081 28.496C36.236 26.1725 37.5053 23.4651 37.7047 20.2776C37.7288 19.8924 37.7612 19.4961 37.5845 19.0693C36.6303 20.0808 35.6512 20.9751 34.5863 21.7703C31.6394 23.9708 28.3779 25.5658 24.953 26.8162C20.7447 28.3527 16.4452 29.4347 11.9145 29.0008C9.58602 28.7778 7.40891 28.0502 5.42522 26.7734C4.69377 26.3027 4.06104 25.7084 3.47628 25.048C3.39181 25.1213 3.33815 25.1533 3.30352 25.2C2.34499 26.4898 1.59115 27.8903 1.17073 29.4527C1.03435 29.9595 0.844401 30.4732 1.02193 31.0314C1.77427 33.3969 3.34625 34.9839 5.61089 36.0127Z" fill="#09080E"></path></svg></g></g></svg></g><g id="dark-icon"><svg xmlns="http://www.w3.org/2000/svg" version="1.1" xmlns:xlink="http://www.w3.org/1999/xlink" width="1000" height="1000"><g><g transform="matrix(22.727272727272727,0,0,22.727272727272727,22.727272727272748,0)"><svg xmlns="http://www.w3.org/2000/svg" width="42" height="44" viewBox="0 0 42 44" fill="none"><path d="M35.11 1.58152C38.6544 3.4163 40.7067 6.28899 41.2782 10.1974C41.466 11.4816 41.679 12.7782 41.2279 14.067C40.7076 15.5532 39.8963 16.8679 38.8912 18.063C38.5965 18.4134 38.5637 18.6321 38.8301 19.041C40.1553 21.0753 41.1209 23.2652 41.1684 25.7351C41.2237 28.614 40.2141 31.1437 38.4332 33.3843C36.5632 35.737 34.1839 37.4609 31.5802 38.8919C27.261 41.2658 22.6721 42.8778 17.7864 43.5806C14.7304 44.0202 11.6601 44.1073 8.62291 43.4484C4.37863 42.5277 1.84132 39.8135 0.756118 35.6845C0.355493 34.1602 0.361776 32.6113 0.508909 31.0274C0.716045 28.7976 1.57376 26.885 2.86994 25.1256C3.12424 24.7804 3.12572 24.5691 2.84104 24.2247C1.08741 22.1034 0.0195139 19.6974 0.000272613 16.9036C-0.0191009 14.0903 0.994318 11.6887 2.97942 9.69889C5.61788 7.0542 8.70476 5.06864 12.0946 3.53633C15.4011 2.04163 18.8565 1.02636 22.4335 0.443414C25.7436 -0.0960262 29.0575 -0.245035 32.3535 0.579856C33.2958 0.81571 34.197 1.16395 35.11 1.58152ZM18.5785 16.6334C14.9772 17.5674 11.5185 18.8578 8.31887 20.7816C6.77086 21.7124 5.35029 22.8055 4.15272 24.1727C3.84565 24.5233 3.87858 24.7989 4.19585 25.1253C5.33452 26.2967 6.71051 27.0804 8.22127 27.6555C11.4246 28.8749 14.7121 28.8464 18.0294 28.3035C21.1975 27.785 24.2402 26.8323 27.1939 25.5879C30.3522 24.2572 33.3586 22.6632 35.9862 20.4287C36.6848 19.8346 37.3715 19.2248 37.9609 18.487C37.2877 17.8092 36.5124 17.3436 35.6869 16.9679C32.1493 15.358 28.4217 15.1619 24.6272 15.5345C22.6078 15.7329 20.6221 16.1355 18.5785 16.6334ZM29.78 15.067C30.2513 15.1279 30.7245 15.1768 31.1935 15.2516C33.6623 15.6453 36.0199 16.3262 38.0008 17.9488C38.1982 18.1106 38.3239 18.1163 38.4923 17.914C39.6039 16.5788 40.5053 15.1293 41.0008 13.4473C41.1305 13.0072 41.0833 12.6383 40.821 12.2405C39.7659 10.6402 38.3872 9.39844 36.7245 8.47009C33.3986 6.61317 29.821 6.31938 26.1358 6.86304C23.2759 7.28494 20.4816 7.99553 17.766 8.99653C13.8623 10.4355 10.2199 12.3103 7.06322 15.0898C4.91225 16.9838 3.75927 19.3156 3.48202 22.1204C3.42406 22.7067 3.53 23.2943 3.71171 23.8383C3.89152 23.8466 3.94547 23.7635 4.00714 23.6983C6.26873 21.3079 9.04803 19.7042 12.037 18.4226C15.1823 17.0739 18.4492 16.1305 21.8165 15.5332C24.424 15.0706 27.0449 14.8056 29.78 15.067ZM5.67882 35.9526C7.13088 36.6061 8.67693 36.8272 10.2456 36.9185C12.9916 37.0783 15.7005 36.7788 18.3847 36.2114C21.9335 35.4613 25.3242 34.2544 28.5801 32.6641C30.7901 31.5846 32.8325 30.2671 34.5211 28.4485C36.6747 26.1289 37.9594 23.4259 38.1612 20.2438C38.1856 19.8592 38.2184 19.4636 38.0395 19.0375C37.0738 20.0473 36.0828 20.9401 35.005 21.734C32.0224 23.9308 28.7214 25.5231 25.2551 26.7715C20.9958 28.3054 16.6443 29.3856 12.0588 28.9524C9.70207 28.7297 7.49861 28.0034 5.49091 26.7288C4.75059 26.2588 4.11021 25.6655 3.51837 25.0062C3.43288 25.0794 3.37857 25.1114 3.34351 25.1579C2.37338 26.4456 1.61041 27.8438 1.1849 29.4035C1.04687 29.9095 0.854624 30.4224 1.0343 30.9796C1.79575 33.3411 3.38676 34.9255 5.67882 35.9526Z" fill="white"></path></svg></g></g></svg></g></svg>