<svg width="41" height="44" viewBox="0 0 41 44" fill="none" xmlns="http://www.w3.org/2000/svg">
<path d="M34.6901 1.58417C38.192 3.42201 40.2197 6.2995 40.7844 10.2144C40.97 11.5008 41.1805 12.7996 40.7347 14.0905C40.2207 15.5792 39.4191 16.8961 38.426 18.0932C38.1348 18.4442 38.1024 18.6632 38.3656 19.0728C39.6749 21.1105 40.6291 23.3041 40.676 25.7781C40.7306 28.6619 39.7331 31.1957 37.9735 33.4401C36.1258 35.7968 33.775 37.5235 31.2025 38.9569C26.9349 41.3347 22.4009 42.9495 17.5736 43.6534C14.5542 44.0937 11.5206 44.181 8.51976 43.521C4.32625 42.5988 1.8193 39.88 0.747074 35.7441C0.351241 34.2173 0.357448 32.6658 0.502821 31.0793C0.70748 28.8457 1.55493 26.9299 2.83561 25.1676C3.08687 24.8219 3.08833 24.6101 2.80705 24.2652C1.0744 22.1403 0.0192805 19.7304 0.000269352 16.9318C-0.0188724 14.1138 0.982424 11.7082 2.94378 9.7151C5.55068 7.06599 8.60064 5.07711 11.9499 3.54224C15.2169 2.04504 18.6309 1.02807 22.1651 0.444155C25.4356 -0.0961867 28.7099 -0.245445 31.9664 0.580826C32.8976 0.817073 33.788 1.1659 34.6901 1.58417ZM18.3563 16.6612C14.798 17.5968 11.3807 18.8893 8.21936 20.8164C6.68987 21.7487 5.28629 22.8436 4.10305 24.2131C3.79965 24.5643 3.83219 24.8404 4.14566 25.1673C5.27071 26.3407 6.63024 27.1257 8.12292 27.7017C11.2879 28.9232 14.5361 28.8946 17.8137 28.3508C20.9439 27.8314 23.9503 26.8772 26.8686 25.6307C29.9892 24.2978 32.9595 22.7011 35.5557 20.4628C36.2459 19.8678 36.9245 19.2569 37.5068 18.5179C36.8416 17.839 36.0756 17.3726 35.26 16.9963C31.7647 15.3837 28.0818 15.1872 24.3326 15.5605C22.3373 15.7592 20.3755 16.1624 18.3563 16.6612ZM29.4238 15.0922C29.8894 15.1532 30.357 15.2021 30.8204 15.2771C33.2597 15.6714 35.5891 16.3534 37.5462 17.9788C37.7413 18.1408 37.8655 18.1465 38.0318 17.9439C39.1301 16.6065 40.0207 15.1546 40.5104 13.4698C40.6385 13.0289 40.5919 12.6595 40.3327 12.261C39.2902 10.6579 37.928 9.41415 36.2852 8.48425C32.9991 6.62422 29.4643 6.32995 25.8232 6.87451C22.9975 7.29711 20.2366 8.00889 17.5535 9.01156C13.6965 10.453 10.0976 12.3309 6.97873 15.115C4.85349 17.0122 3.7143 19.3479 3.44037 22.1573C3.3831 22.7446 3.48778 23.3332 3.66732 23.8782C3.84497 23.8864 3.89827 23.8032 3.95921 23.7379C6.19374 21.3435 8.9398 19.7371 11.893 18.4534C15.0007 17.1024 18.2285 16.1575 21.5555 15.5591C24.1319 15.0958 26.7214 14.8304 29.4238 15.0922ZM5.61089 36.0127C7.04558 36.6673 8.57314 36.8888 10.123 36.9802C12.8362 37.1402 15.5127 36.8403 18.1648 36.2719C21.6711 35.5205 25.0212 34.3117 28.2382 32.7187C30.4218 31.6374 32.4398 30.3177 34.1081 28.496C36.236 26.1725 37.5053 23.4651 37.7047 20.2776C37.7288 19.8924 37.7612 19.4961 37.5845 19.0693C36.6303 20.0808 35.6512 20.9751 34.5863 21.7703C31.6394 23.9708 28.3779 25.5658 24.953 26.8162C20.7447 28.3527 16.4452 29.4347 11.9145 29.0008C9.58602 28.7778 7.40891 28.0502 5.42522 26.7734C4.69377 26.3027 4.06104 25.7084 3.47628 25.048C3.39181 25.1213 3.33815 25.1533 3.30352 25.2C2.34499 26.4898 1.59115 27.8903 1.17073 29.4527C1.03435 29.9595 0.844401 30.4732 1.02193 31.0314C1.77427 33.3969 3.34625 34.9839 5.61089 36.0127Z" fill="#09080E"/>
</svg>
