<svg width="42" height="44" viewBox="0 0 42 44" fill="none" xmlns="http://www.w3.org/2000/svg">
<path d="M35.11 1.58152C38.6544 3.4163 40.7067 6.28899 41.2782 10.1974C41.466 11.4816 41.679 12.7782 41.2279 14.067C40.7076 15.5532 39.8963 16.8679 38.8912 18.063C38.5965 18.4134 38.5637 18.6321 38.8301 19.041C40.1553 21.0753 41.1209 23.2652 41.1684 25.7351C41.2237 28.614 40.2141 31.1437 38.4332 33.3843C36.5632 35.737 34.1839 37.4609 31.5802 38.8919C27.261 41.2658 22.6721 42.8778 17.7864 43.5806C14.7304 44.0202 11.6601 44.1073 8.62291 43.4484C4.37863 42.5277 1.84132 39.8135 0.756118 35.6845C0.355493 34.1602 0.361776 32.6113 0.508909 31.0274C0.716045 28.7976 1.57376 26.885 2.86994 25.1256C3.12424 24.7804 3.12572 24.5691 2.84104 24.2247C1.08741 22.1034 0.0195139 19.6974 0.000272613 16.9036C-0.0191009 14.0903 0.994318 11.6887 2.97942 9.69889C5.61788 7.0542 8.70476 5.06864 12.0946 3.53633C15.4011 2.04163 18.8565 1.02636 22.4335 0.443414C25.7436 -0.0960262 29.0575 -0.245035 32.3535 0.579856C33.2958 0.81571 34.197 1.16395 35.11 1.58152ZM18.5785 16.6334C14.9772 17.5674 11.5185 18.8578 8.31887 20.7816C6.77086 21.7124 5.35029 22.8055 4.15272 24.1727C3.84565 24.5233 3.87858 24.7989 4.19585 25.1253C5.33452 26.2967 6.71051 27.0804 8.22127 27.6555C11.4246 28.8749 14.7121 28.8464 18.0294 28.3035C21.1975 27.785 24.2402 26.8323 27.1939 25.5879C30.3522 24.2572 33.3586 22.6632 35.9862 20.4287C36.6848 19.8346 37.3715 19.2248 37.9609 18.487C37.2877 17.8092 36.5124 17.3436 35.6869 16.9679C32.1493 15.358 28.4217 15.1619 24.6272 15.5345C22.6078 15.7329 20.6221 16.1355 18.5785 16.6334ZM29.78 15.067C30.2513 15.1279 30.7245 15.1768 31.1935 15.2516C33.6623 15.6453 36.0199 16.3262 38.0008 17.9488C38.1982 18.1106 38.3239 18.1163 38.4923 17.914C39.6039 16.5788 40.5053 15.1293 41.0008 13.4473C41.1305 13.0072 41.0833 12.6383 40.821 12.2405C39.7659 10.6402 38.3872 9.39844 36.7245 8.47009C33.3986 6.61317 29.821 6.31938 26.1358 6.86304C23.2759 7.28494 20.4816 7.99553 17.766 8.99653C13.8623 10.4355 10.2199 12.3103 7.06322 15.0898C4.91225 16.9838 3.75927 19.3156 3.48202 22.1204C3.42406 22.7067 3.53 23.2943 3.71171 23.8383C3.89152 23.8466 3.94547 23.7635 4.00714 23.6983C6.26873 21.3079 9.04803 19.7042 12.037 18.4226C15.1823 17.0739 18.4492 16.1305 21.8165 15.5332C24.424 15.0706 27.0449 14.8056 29.78 15.067ZM5.67882 35.9526C7.13088 36.6061 8.67693 36.8272 10.2456 36.9185C12.9916 37.0783 15.7005 36.7788 18.3847 36.2114C21.9335 35.4613 25.3242 34.2544 28.5801 32.6641C30.7901 31.5846 32.8325 30.2671 34.5211 28.4485C36.6747 26.1289 37.9594 23.4259 38.1612 20.2438C38.1856 19.8592 38.2184 19.4636 38.0395 19.0375C37.0738 20.0473 36.0828 20.9401 35.005 21.734C32.0224 23.9308 28.7214 25.5231 25.2551 26.7715C20.9958 28.3054 16.6443 29.3856 12.0588 28.9524C9.70207 28.7297 7.49861 28.0034 5.49091 26.7288C4.75059 26.2588 4.11021 25.6655 3.51837 25.0062C3.43288 25.0794 3.37857 25.1114 3.34351 25.1579C2.37338 26.4456 1.61041 27.8438 1.1849 29.4035C1.04687 29.9095 0.854624 30.4224 1.0343 30.9796C1.79575 33.3411 3.38676 34.9255 5.67882 35.9526Z" fill="white"/>
</svg>
